<svg xmlns="http://www.w3.org/2000/svg" viewBox="0 0 32 32">
  <defs>
    <linearGradient id="g" x1="0%" y1="0%" x2="100%" y2="100%">
      <stop offset="0%" stop-color="#FFD700"/>
      <stop offset="100%" stop-color="#D4A800"/>
    </linearGradient>
  </defs>
  <!-- Simplified gear for favicon -->
  <circle cx="16" cy="16" r="14" fill="url(#g)" stroke="#0D0D0D" stroke-width="1.5"/>
  <!-- Teeth -->
  <path d="M16 2 L18 4 L14 4 Z M16 30 L18 28 L14 28 Z M2 16 L4 18 L4 14 Z M30 16 L28 18 L28 14 Z M5 5 L8 7 L6 9 Z M27 5 L24 7 L26 9 Z M5 27 L8 25 L6 23 Z M27 27 L24 25 L26 23 Z" fill="url(#g)"/>
  <!-- Inner circle -->
  <circle cx="16" cy="16" r="6" fill="#0D0D0D"/>
  <!-- Mini C -->
  <path d="M18 12 C22 12 22 20 18 20 L16 20 L16 18 L17 18 C19 18 19 14 17 14 L16 14 L16 12 Z" fill="url(#g)"/>
</svg>
